<svg width="16" height="16" viewBox="0 0 16 16" fill="none" xmlns="http://www.w3.org/2000/svg">
<path d="M8 1C6.61553 1 5.26216 1.41054 4.11101 2.17971C2.95987 2.94888 2.06266 4.04213 1.53285 5.32122C1.00303 6.6003 0.86441 8.00776 1.13451 9.36563C1.4046 10.7235 2.07129 11.9708 3.05026 12.9497C4.02922 13.9287 5.2765 14.5954 6.63437 14.8655C7.99224 15.1356 9.3997 14.997 10.6788 14.4672C11.9579 13.9373 13.0511 13.0401 13.8203 11.889C14.5895 10.7378 15 9.38447 15 8C15 6.14348 14.2625 4.36301 12.9497 3.05025C11.637 1.7375 9.85652 1 8 1ZM8 14C6.81332 14 5.65328 13.6481 4.66658 12.9888C3.67989 12.3295 2.91085 11.3925 2.45673 10.2961C2.0026 9.19974 1.88378 7.99334 2.11529 6.82946C2.3468 5.66557 2.91825 4.59647 3.75736 3.75736C4.59648 2.91824 5.66558 2.3468 6.82946 2.11529C7.99335 1.88378 9.19975 2.0026 10.2961 2.45672C11.3925 2.91085 12.3295 3.67988 12.9888 4.66658C13.6481 5.65327 14 6.81331 14 8C14 9.5913 13.3679 11.1174 12.2426 12.2426C11.1174 13.3679 9.5913 14 8 14Z" fill="#9BABC9"/>
<path d="M5.49998 5.49997C5.30221 5.49997 5.10887 5.55862 4.94442 5.6685C4.77998 5.77838 4.65181 5.93455 4.57612 6.11728C4.50043 6.3 4.48063 6.50106 4.51921 6.69504C4.5578 6.88902 4.65304 7.0672 4.79289 7.20705C4.93274 7.3469 5.11092 7.44214 5.3049 7.48072C5.49887 7.51931 5.69994 7.49951 5.88266 7.42382C6.06538 7.34813 6.22156 7.21996 6.33144 7.05552C6.44132 6.89107 6.49997 6.69773 6.49997 6.49995C6.50103 6.36834 6.4759 6.23783 6.42602 6.11602C6.37614 5.99422 6.30253 5.88355 6.20945 5.79048C6.11638 5.69741 6.00572 5.6238 5.88392 5.57392C5.76211 5.52404 5.6316 5.49891 5.49998 5.49997Z" fill="#9BABC9"/>
<path d="M10.5 5.49997C10.3022 5.49997 10.1089 5.55862 9.94442 5.6685C9.77998 5.77838 9.65181 5.93455 9.57612 6.11728C9.50043 6.3 9.48063 6.50106 9.51921 6.69504C9.5578 6.88902 9.65304 7.0672 9.79289 7.20705C9.93274 7.3469 10.1109 7.44214 10.3049 7.48072C10.4989 7.51931 10.6999 7.49951 10.8827 7.42382C11.0654 7.34813 11.2216 7.21996 11.3314 7.05552C11.4413 6.89107 11.5 6.69773 11.5 6.49995C11.501 6.36834 11.4759 6.23783 11.426 6.11602C11.3761 5.99422 11.3025 5.88355 11.2095 5.79048C11.1164 5.69741 11.0057 5.6238 10.8839 5.57392C10.7621 5.52404 10.6316 5.49891 10.5 5.49997Z" fill="#9BABC9"/>
<path d="M7.99922 12C8.6894 11.9988 9.36755 11.8191 9.96771 11.4783C10.5679 11.1374 11.0696 10.6471 11.4242 10.055L10.5692 9.55499C10.3024 9.9981 9.92553 10.3647 9.47522 10.6192C9.02491 10.8736 8.51646 11.0074 7.99922 11.0074C7.48198 11.0074 6.97352 10.8736 6.52322 10.6192C6.07291 10.3647 5.69605 9.9981 5.42922 9.55499L4.57422 10.055C4.9288 10.6471 5.43057 11.1374 6.03073 11.4783C6.63089 11.8191 7.30903 11.9988 7.99922 12Z" fill="#9BABC9"/>
</svg>
