<svg width="18" height="18" viewBox="0 0 18 18" fill="none" xmlns="http://www.w3.org/2000/svg">
<mask id="mask0_4876_18613" style="mask-type:alpha" maskUnits="userSpaceOnUse" x="3" y="1" width="12" height="16">
<path fill-rule="evenodd" clip-rule="evenodd" d="M11.2429 8.625C11.2429 9.87 10.2454 10.875 9.00035 10.875C7.75535 10.875 6.75035 9.87 6.75035 8.625V4.125C6.75035 2.88 7.75535 1.875 9.00035 1.875C10.2454 1.875 11.2504 2.88 11.2504 4.125L11.2429 8.625ZM12.9379 9.1575C12.9829 8.85 13.2454 8.625 13.5604 8.625C13.9504 8.625 14.2504 8.97 14.1979 9.3525C13.8529 11.58 11.9704 13.3425 9.75035 13.665V15.375C9.75035 15.7875 9.41285 16.125 9.00035 16.125C8.58785 16.125 8.25035 15.7875 8.25035 15.375V13.665C6.02285 13.3275 4.14785 11.58 3.80285 9.3525C3.75035 8.97 4.05035 8.625 4.44035 8.625C4.74785 8.625 5.01785 8.85 5.06285 9.1575C5.34035 11.1225 7.10285 12.45 9.00035 12.45C10.8979 12.45 12.6604 11.115 12.9379 9.1575Z" fill="black"/>
</mask>
<g mask="url(#mask0_4876_18613)">
<rect width="18" height="18" fill="#858C94"/>
</g>
</svg>
